<svg id="Lager_2" data-name="Lager 2" xmlns="http://www.w3.org/2000/svg" viewBox="0 0 496 233.22"><defs><style>.cls-1{fill:#fdeb01;}.cls-2{fill:#181714;}.cls-3{fill:#fcfcfc;}</style></defs><path class="cls-1" d="M323.28,209.23c-4.68,3.29-9,6.74-13.7,9.58-23.92,14.47-49.48,18.05-76.47,10.72a60.08,60.08,0,0,1-20.21-10.14c-1.6-1.2-2.66-1.11-4.3-.06-12.79,8.15-26.91,12.08-42,13.33-12.44,1-24.55-.07-36.22-4.32-5.43-2-10.42-5.14-15.66-7.66a3.57,3.57,0,0,0-2.83-.16c-16.71,10-35,12.9-54.08,11.75-14.29-.87-27.39-5.46-38.27-15.29C9,207.43,3.72,195.4,2.9,181.43c-1-17.61,3.32-34.41,8.28-51.12,8.22-27.63,19.55-54,32.63-79.6,5.39-10.56,11-21.06,19.1-29.89A59.25,59.25,0,0,1,92.81,3.05a76.27,76.27,0,0,1,35.58.13c8.38,1.93,15.44,6,19.29,14.12,4.62-2.83,8.93-5.74,13.48-8.18,9.05-4.86,19-6.82,29.06-8A143.53,143.53,0,0,1,223.75.9a58.21,58.21,0,0,1,29.57,11.61c1.81,1.39,3.07,1.41,5.13.24A96,96,0,0,1,299.29.82a133.55,133.55,0,0,1,28.76,1c14.24,2.05,27.39,6.72,38.17,16.67,1.15,1.06,2,1.37,3.43.4C375,15.22,380.22,11.14,386,8.29,390.8,5.94,396.29,5,401.54,3.64a101.88,101.88,0,0,1,39.91-1.78c22.29,3.18,39.8,13.83,50.23,34.33,5.69,11.18,7.6,23.27,6.95,35.71-.7,13.23-2,26.4-5.54,39.25-5.64,20.38-12.37,40.32-22.06,59.22C464,184.1,456,197,445,208c-15.42,15.42-34.08,23.38-55.9,24.7-13.81.84-27.24-.45-40.1-5.37a99.2,99.2,0,0,1-18.11-9.49C327.86,215.85,325.89,212.27,323.28,209.23Zm2.28-21.73c7.41,18.35,21.26,27.82,39.77,31.2a88.77,88.77,0,0,0,37.24-1.37,70.15,70.15,0,0,0,23.9-10.86c12.56-8.8,21.58-20.62,28.73-33.89a277.65,277.65,0,0,0,26.88-74.15c3.08-14.46,5-29.08,1.68-43.83C479.42,35.13,468,22.27,448.49,16.84a85.84,85.84,0,0,0-28-2.75c-13.86.76-27,4.07-38.55,12-5.86,4-11.13,8.92-16.69,13.43C359,27.69,348.58,20.18,335.44,17a128,128,0,0,0-25.81-3.38c-17.05-.62-33.2,3.18-47.88,12.23-2.65,1.64-5.14,3.55-7.8,5.4-7.13-9.8-17.09-14.45-28.38-16.57-13-2.45-25.94-1.53-38.89.43-12.12,1.84-23.21,6.07-32.37,14.35-4.21,3.81-7.82,8.26-11.73,12.44-.14-1.2-.34-2.58-.46-4-.92-11-7.24-18.61-17.89-21.63a59.1,59.1,0,0,0-21.34-1.62,44.51,44.51,0,0,0-30.73,15.5c-7,7.94-12,17.15-16.33,26.59C47,76,38.21,95.23,30.47,114.89c-7.19,18.26-13,37.08-14.4,56.87C14.5,194,25.33,212.9,48.69,217.58c23.57,4.73,45.87,1.52,65.07-14.81,13.32,13.65,30.19,18.07,48.73,17.06,18.22-1,35.13-5.81,48.56-19.46a49.6,49.6,0,0,0,24.81,16.55c24,6.9,46.69,3,67.88-9.92C312,202,319,195.33,325.56,187.5Z" transform="translate(-2.75 0)"/><path class="cls-2" d="M325.56,187.5C319,195.33,312,202,303.74,207c-21.19,12.91-43.84,16.82-67.88,9.92a49.6,49.6,0,0,1-24.81-16.55c-13.43,13.65-30.34,18.45-48.56,19.46-18.54,1-35.41-3.41-48.73-17.06-19.2,16.33-41.5,19.54-65.07,14.81C25.33,212.9,14.5,194,16.07,171.76c1.39-19.79,7.21-38.61,14.4-56.87C38.21,95.23,47,76,55.83,56.74c4.35-9.44,9.35-18.65,16.33-26.59a44.51,44.51,0,0,1,30.73-15.5,59.1,59.1,0,0,1,21.34,1.62c10.65,3,17,10.65,17.89,21.63.12,1.39.32,2.77.46,4,3.91-4.18,7.52-8.63,11.73-12.44,9.16-8.28,20.25-12.51,32.37-14.35,12.95-2,25.93-2.88,38.89-.43,11.29,2.12,21.25,6.77,28.38,16.57,2.66-1.85,5.15-3.76,7.8-5.4,14.68-9,30.83-12.85,47.88-12.23A128,128,0,0,1,335.44,17c13.14,3.21,23.56,10.72,29.77,22.58C370.77,35,376,30.16,381.9,26.12c11.53-8,24.69-11.27,38.55-12a85.84,85.84,0,0,1,28,2.75C468,22.27,479.42,35.13,483.76,54.6c3.3,14.75,1.4,29.37-1.68,43.83a277.65,277.65,0,0,1-26.88,74.15c-7.15,13.27-16.17,25.09-28.73,33.89a70.15,70.15,0,0,1-23.9,10.86,88.77,88.77,0,0,1-37.24,1.37C346.82,215.32,333,205.85,325.56,187.5Zm56.3,16.33.14.76c7-1.32,14.24-2,21-4.07,15.81-4.79,26.46-16.1,34.58-29.83a246,246,0,0,0,29.33-77.46c2.13-10.67,3.57-21.42,2-32.33-2.15-14.57-9.9-24.73-24.38-28.46-17.69-4.56-35.08-3.3-51.26,5.86-11.94,6.76-19.76,17.45-25.71,29.45a324.29,324.29,0,0,0-23.86,64.69c-3,11.74-5.28,23.61-4.9,35.78.44,13.77,5.6,24.88,18.74,31.07C365.23,202.92,373.5,203.63,381.86,203.83Zm-90.26-66c-1.68,7.44-4.68,14.11-9.9,19.59-4,4.2-8.73,7.19-14.86,6.94-5.82-.23-9-3.26-9-9.06A50.71,50.71,0,0,1,259,144c4.3-18.61,11-36.45,18.85-53.8a124.94,124.94,0,0,1,10.95-19.08c3.53-5.12,9.11-7.14,15.42-6.53,4.51.43,6.14,2.68,5.09,7.11-.56,2.39-1.47,4.7-2,7.1-1.35,6.63,1.36,11.44,7.81,13.27,9.46,2.68,18.34,1.23,26.2-4.83,6.46-5,9.17-12.12,10.75-19.8,3.45-16.78-2.89-28.82-18.89-34a78.83,78.83,0,0,0-51.12.79C266.31,39.78,255.44,51.2,247,65.12,234,86.7,225.1,110,219.12,134.37c-2.83,11.57-5,23.21-3.64,35.25,2,17.52,13.54,30.13,30.92,33.22,19.52,3.47,37.35-.78,53.2-12.61,15-11.19,24.36-26.39,30.11-43.91,2.75-8.38,5-16.92,4.63-25.86-.38-10.4-5.83-17-16.17-18.5a68.93,68.93,0,0,0-17.75-.07c-12.75,1.58-19.71,8.44-22.48,21-1.33,6,.89,10.54,6.58,12.91A65,65,0,0,0,291.6,137.83ZM179.4,93.34c3-6,6.16-12.39,9.47-18.7a3.31,3.31,0,0,1,2.47-1.08c6.87-.24,13.75-.23,20.62-.56s13.64-1.86,19.53-5.79c7.51-5,10.86-12.21,10-21.06-.84-8.32-7.08-11.94-14.11-14.54a27.41,27.41,0,0,0-3.23-1c-9.23-2.29-18.55-1.54-27.86-.76-8.25.7-16.17,2.62-23.47,6.74-10.35,5.83-17.12,15-22.42,25.12C133.43,93.88,120.2,127.31,117.11,164c-1.2,14.33,5.33,27.52,18,34.35,16.69,9,46.06,6.32,60.78-5.71a27.46,27.46,0,0,0,10.53-22.55c-.06-6.78-3.26-11.46-9.54-14-6.57-2.69-13.45-2.73-20.32-2-5.85.62-11.64,1.77-17.74,2.74l6.86-24.68c7.43.43,14.18,1.22,20.92,1.14,15-.19,24.72-8.18,28-22.39,1.93-8.37-1.46-14.17-9.75-16.28A42.23,42.23,0,0,0,196,93.4C190.6,93.2,185.19,93.34,179.4,93.34ZM78.89,156.07c.44-1.06.85-2.16,1.34-3.23,11.31-24.18,22.8-48.28,33.86-72.57,4.7-10.33,8.73-21,10.49-32.31,1.48-9.53-2.8-16-11.55-16.8a47,47,0,0,0-11.61.35C90.92,33.16,84.19,40,79.07,48.7,65.74,71.37,55.33,95.39,46.25,120,40,136.9,34.57,154,32.52,172.08c-1.82,15.94,6.13,27.37,22,30.18a65.81,65.81,0,0,0,35.44-3.11c12.22-4.66,19.64-13.43,21.33-26.57,1.2-9.3-2.89-15.2-12.28-16.35C92.48,155.43,85.81,156.07,78.89,156.07Z" transform="translate(-2.75 0)"/><path class="cls-3" d="M381.86,203.83c-8.36-.2-16.63-.91-24.33-4.54-13.14-6.19-18.3-17.3-18.74-31.07-.38-12.17,1.93-24,4.9-35.78a324.29,324.29,0,0,1,23.86-64.69c5.95-12,13.77-22.69,25.71-29.45,16.18-9.16,33.57-10.42,51.26-5.86C459,36.17,466.75,46.33,468.9,60.9c1.61,10.91.17,21.66-2,32.33a246,246,0,0,1-29.33,77.46c-8.12,13.73-18.77,25-34.58,29.83-6.79,2.07-14,2.75-21,4.07Zm47.5-127.17c.11-9.53-2.61-11.92-9.06-11.31a11.52,11.52,0,0,0-9.15,5.42,69.39,69.39,0,0,0-4.41,7.35,402.28,402.28,0,0,0-21,54.68,203.84,203.84,0,0,0-5.21,21.11c-.75,3.78-.21,7.69,3.83,9.86a10.14,10.14,0,0,0,11.9-2.12,34.43,34.43,0,0,0,6.07-8.38c8.91-18,15.55-36.94,21.49-56.1C426.25,89.48,428,81.61,429.36,76.66Z" transform="translate(-2.75 0)"/><path class="cls-3" d="M291.6,137.83a65,65,0,0,1-7.08-2c-5.69-2.37-7.91-6.9-6.58-12.91,2.77-12.56,9.73-19.42,22.48-21a68.93,68.93,0,0,1,17.75.07c10.34,1.45,15.79,8.1,16.17,18.5.33,8.94-1.88,17.48-4.63,25.86C324,163.84,314.59,179,299.6,190.23c-15.85,11.83-33.68,16.08-53.2,12.61-17.38-3.09-28.9-15.7-30.92-33.22-1.4-12,.81-23.68,3.64-35.25C225.1,110,234,86.7,247,65.12c8.41-13.92,19.28-25.34,35.1-30.83a78.83,78.83,0,0,1,51.12-.79c16,5.16,22.34,17.2,18.89,34-1.58,7.68-4.29,14.82-10.75,19.8-7.86,6.06-16.74,7.51-26.2,4.83-6.45-1.83-9.16-6.64-7.81-13.27.49-2.4,1.4-4.71,2-7.1,1.05-4.43-.58-6.68-5.09-7.11-6.31-.61-11.89,1.41-15.42,6.53a124.94,124.94,0,0,0-10.95,19.08C270,107.59,263.33,125.43,259,144a50.71,50.71,0,0,0-1.22,11.26c0,5.8,3.21,8.83,9,9.06,6.13.25,10.85-2.74,14.86-6.94C286.92,151.94,289.92,145.27,291.6,137.83Z" transform="translate(-2.75 0)"/><path class="cls-3" d="M179.4,93.34c5.79,0,11.2-.14,16.59.06a42.23,42.23,0,0,1,8.81,1.24c8.29,2.11,11.68,7.91,9.75,16.28-3.28,14.21-13,22.2-28,22.39-6.74.08-13.49-.71-20.92-1.14l-6.86,24.68c6.1-1,11.89-2.12,17.74-2.74,6.87-.73,13.75-.69,20.32,2,6.28,2.56,9.48,7.24,9.54,14a27.46,27.46,0,0,1-10.53,22.55c-14.72,12-44.09,14.75-60.78,5.71-12.62-6.83-19.15-20-18-34.35,3.09-36.73,16.32-70.16,33.26-102.32,5.3-10.07,12.07-19.29,22.42-25.12,7.3-4.12,15.22-6,23.47-6.74,9.31-.78,18.63-1.53,27.86.76a27.41,27.41,0,0,1,3.23,1c7,2.6,13.27,6.22,14.11,14.54.89,8.85-2.46,16.05-10,21.06C225.6,71.14,218.91,72.67,212,73s-13.75.32-20.62.56a3.31,3.31,0,0,0-2.47,1.08C185.56,81,182.41,87.34,179.4,93.34Z" transform="translate(-2.75 0)"/><path class="cls-3" d="M78.89,156.07c6.92,0,13.59-.64,20.09.16,9.39,1.15,13.48,7.05,12.28,16.35-1.69,13.14-9.11,21.91-21.33,26.57a65.81,65.81,0,0,1-35.44,3.11c-15.84-2.81-23.79-14.24-22-30.18,2-18,7.48-35.18,13.73-52.08,9.08-24.61,19.49-48.63,32.82-71.3,5.12-8.7,11.85-15.54,22.35-17.19A47,47,0,0,1,113,31.16c8.75.81,13,7.27,11.55,16.8-1.76,11.33-5.79,22-10.49,32.31C103,104.56,91.54,128.66,80.23,152.84,79.74,153.91,79.33,155,78.89,156.07Z" transform="translate(-2.75 0)"/><path class="cls-2" d="M429.36,76.66c-1.32,5-3.11,12.82-5.5,20.51-5.94,19.16-12.58,38.08-21.49,56.1a34.43,34.43,0,0,1-6.07,8.38,10.14,10.14,0,0,1-11.9,2.12c-4-2.17-4.58-6.08-3.83-9.86a203.84,203.84,0,0,1,5.21-21.11,402.28,402.28,0,0,1,21-54.68,69.39,69.39,0,0,1,4.41-7.35,11.52,11.52,0,0,1,9.15-5.42C426.75,64.74,429.47,67.13,429.36,76.66Z" transform="translate(-2.75 0)"/></svg>